PathFileType	4	(X/Y/Z)	7_coords_data.trc
DataRate	CameraRate	NumFrames	NumMarkers	Units	OrigDataRate	OrigDataStartFrame	OrigNumFrames
30.0	30.0	6	21	m	30.0	10	49
Frame#	Time	THUMB_TIP	THUMB_IP	THUMB_MCP	THUMB_CMC	INDEX_TIP	INDEX_DIP	INDEX_PIP	INDEX_MCP	MIDDLE_TIP	MIDDLE_DIP	MIDDLE_PIP	MIDDLE_MCP	RING_TIP	RING_DIP	RING_PIP	RING_MCP	PINKY_TIP	PINKY_DIP	PINKY_PIP	PINKY_MCP	WRIST
X1	Y1	Z1	X2	Y2	Z2	X3	Y3	Z3	X4	Y4	Z4	X5	Y5	Z5	X6	Y6	Z6	X7	Y7	Z7	X8	Y8	Z8	X9	Y9	Z9	X10	Y10	Z10	X11	Y11	Z11	X12	Y12	Z12	X13	Y13	Z13	X14	Y14	Z14	X15	Y15	Z15	X16	Y16	Z16	X17	Y17	Z17	X18	Y18	Z18	X19	Y19	Z19	X20	Y20	Z20	X21	Y21	Z21
8	0.2999999999999987	0.5083024674830086	-0.011510314631766994	-0.16365792440260812	0.49911830331449714	-0.01717718938263313	-0.14337153342038	0.48094296478022913	-0.027910048602681536	-0.12049615796712532	0.47525408474028186	-0.03071997669961557	-0.0763415325244704	0.5081572275601105	-0.01765163654754609	-0.11016274421977756	0.5249468765473609	-0.01370735577218729	-0.11568998006150272	0.5333043152771704	0.007787123215882041	-0.12569749843065497	0.492902212805983	0.019233602437850217	-0.11860635442360462	0.507851840593304	-0.018245748800777006	-0.09357165604161188	0.5255539813126434	-0.014745574686677032	-0.09511535132361837	0.5412710933269581	0.008697810474651013	-0.10238099872127804	0.502827965871088	0.03097614675846394	-0.09769595818387955	0.5070605729392772	-0.00946705846867757	-0.07705235379933084	0.524936199906875	-0.007130004565068404	-0.07706416764351864	0.5419690061238859	0.010869332086715255	-0.07953142755473841	0.5103682212371434	0.03595752051204726	-0.07694414518188597	0.508090581465633	-0.013106922268288024	-0.05841969443218542	0.5252023104068945	-0.012773660518981544	-0.05814100240279474	0.5387202369924525	0.0032853988797378886	-0.05771171106132844	0.5142259554330395	0.029477421334021647	-0.05385274984845012	0.4622830810018609	-0.023011742144276925	-0.051989820119430985
9	0.33333333333333187	0.5084950646685972	-0.012082001854374247	-0.1636664781332059	0.4991875325251117	-0.01762133415527345	-0.1434010977257673	0.4809326868591066	-0.02817043618618964	-0.12050356388363365	0.47523027501295756	-0.030771372343092795	-0.07633788003016417	0.5080363732664526	-0.017760062548873745	-0.11019184518067249	0.5248392430880728	-0.013893789906413323	-0.11573400194603434	0.5332785767662515	0.00755106259594529	-0.12577918891395312	0.4929170607453083	0.019126963156030463	-0.118667041227482	0.5078244550238493	-0.018351212788479176	-0.09360872769151585	0.5255288226863764	-0.01487134811138957	-0.09517266742795494	0.5412897942513125	0.008527680653981129	-0.10248613296534786	0.5028868134754715	0.030868702596966058	-0.09777044350637654	0.5070414476452626	-0.009565187685055876	-0.07709688068352938	0.5249189078139501	-0.007242304265453914	-0.07712199115816576	0.5420022729705778	0.010703247130983695	-0.0796311342396051	0.5104508391598356	0.035852349358199476	-0.07703295879298733	0.5080868781331968	-0.013230886280124587	-0.05846625966704544	0.5251986801087101	-0.012893729798224896	-0.058196892524412513	0.5387608943239757	0.0031286227786974097	-0.05779367734607754	0.5143245552296875	0.02937628619904553	-0.05394543779518268	0.462283081001861	-0.023011742144276925	-0.051989820119430985
10	0.3666666666666651	0.5086677027175474	-0.012455416359496096	-0.16365497469195167	0.4992493136844929	-0.017912488976005725	-0.14341851486123575	0.48093533346695094	-0.028332269191463033	-0.12050899044772934	0.47521601410307046	-0.030795924714877465	-0.07633762203474148	0.5079901302944865	-0.017770511605312733	-0.11024036787925773	0.5248068855092187	-0.0139666862939134	-0.1157836211702537	0.5332663395213417	0.00746459671704347	-0.12584083645685484	0.4929242411960191	0.019084580344913116	-0.1186905093875491	0.5078190516203744	-0.018393111771887405	-0.09363812136972782	0.5255236960845601	-0.014923502085993356	-0.09522159003829411	0.5413012878596754	0.00845593136800804	-0.10256183793245549	0.5029147958066846	0.030816888974575685	-0.09780655415722528	0.5070261897493836	-0.009593607261328185	-0.0771388990108226	0.5249057585660902	-0.007287027393598322	-0.077165511835529	0.542020156356613	0.01062546644521345	-0.07969927025777146	0.5104907502874307	0.03579992050515379	-0.07707929893949983	0.5080783866794979	-0.013260612093535018	-0.0584669966457908	0.5251913034078657	-0.012955538087833562	-0.05823245262220533	0.5387828316449371	0.003042329821852374	-0.05784437849897217	0.5143798576874473	0.029319712487984262	-0.0539872457234829	0.462283081001861	-0.023011742144276925	-0.051989820119430985
11	0.39999999999999825	0.5088292615524929	-0.012616896827847945	-0.16361122354575108	0.49931893848528774	-0.018034704959627113	-0.14340723606296413	0.4809558181945145	-0.02838739016339309	-0.12050663078148038	0.4752242746987827	-0.030794389673978295	-0.0763337232191228	0.50809828923835	-0.017725856870290824	-0.11030062692043857	0.5249124626654762	-0.013917164325697673	-0.11584836817821942	0.533309863910119	0.007547051871497734	-0.12588733766599702	0.4929543365990391	0.019083315522996136	-0.11867747425482184	0.507851433687375	-0.018397732467276717	-0.09368171548895421	0.5255524418664135	-0.014915113698218296	-0.0952772329457715	0.5413292832746738	0.008467422084659004	-0.10260920713701582	0.5029360438934679	0.030805487908430518	-0.09780109876986376	0.507050332986821	-0.009609034467305544	-0.07718326686528598	0.5249299816992495	-0.007303050653909682	-0.07720777344622531	0.542048168271813	0.010606505298913826	-0.0797367006969778	0.5105162558797793	0.03577490750711365	-0.07708889685465803	0.508100837217707	-0.013302980409658494	-0.05850771989291814	0.5252138415086965	-0.012998073204508298	-0.05827943118793477	0.5388090008824764	0.002996426222717119	-0.05787987058676003	0.51441732552663	0.02928170136885666	-0.0540050886797705	0.4622830810018608	-0.023011742144276925	-0.051989820119430985
12	0.43333333333333146	0.508971350353384	-0.012607525568047118	-0.16355781001820002	0.4993923317920551	-0.01801645390211093	-0.1433839185324534	0.4809958476920505	-0.02835783662373459	-0.12050499425347605	0.4752364358513249	-0.0307674465000779	-0.07633585394609921	0.5083590728233549	-0.01759133172183336	-0.11040565177575956	0.5251613730827064	-0.01370971242430985	-0.11593880075474916	0.5333845711782307	0.007845275243631433	-0.12592736184815317	0.49297893707179774	0.019146390144715753	-0.11862629148487402	0.5079341787631193	-0.018340761310614795	-0.09373343972493353	0.5256285870803695	-0.014825357864480804	-0.0953302656119146	0.5413628914788847	0.008600101996206533	-0.10261648859849687	0.5029300823120244	0.03085653737667693	-0.09774635670103804	0.5070827981292414	-0.009565768852576984	-0.07722552315983855	0.5249610016166266	-0.007248521620610848	-0.0772398524861787	0.5420663964808367	0.010676865510239608	-0.07974303880537215	0.510504842484579	0.03580279280488452	-0.07704546194353368	0.508120163092722	-0.01323181072581292	-0.05854391416574489	0.5252338086199527	-0.01295951547419516	-0.058322572655319815	0.5388272281413701	0.0030359153108241443	-0.057901670390641424	0.5144102616013407	0.029289913148170532	-0.053974483924517314	0.4622830810018609	-0.023011742144276925	-0.051989820119430985
13	0.4666666666666647	0.5091373416664592	-0.01241731614028041	-0.16345788093671276	0.499485688865134	-0.017867005930987112	-0.14332963015857164	0.48105246737769114	-0.028249692420895478	-0.12049903299495918	0.4752598694732135	-0.030722299793406793	-0.07633771482737683	0.5087238259498001	-0.01739886694295989	-0.1104975648323469	0.5255009265072538	-0.013392844521012415	-0.1160184960255371	0.5335009067383081	0.008279806804221579	-0.12593345108532278	0.4930242029499168	0.019258308287170567	-0.11853446131538037	0.5080212942328433	-0.018245073866582917	-0.09377071768111833	0.5257101373772188	-0.014694190357128156	-0.09535060834694287	0.5413914926781591	0.008788559292351894	-0.10256622438616825	0.5029115433925248	0.03095300745641194	-0.09764904414158637	0.5071267111215497	-0.009490880888511577	-0.07723751953378233	0.5250015357515511	-0.0071476793780396175	-0.07724466991978718	0.542080165942355	0.01081022983701041	-0.0796969885022275	0.5104743608886295	0.035873710572600914	-0.0769373047662546	0.5081465517516771	-0.013155272021725284	-0.05860412490661937	0.5252599187268507	-0.012903015093117531	-0.05834137556789054	0.5388306246935861	0.003110420990014129	-0.05787466004868136	0.51438067342441	0.029323003650769563	-0.05387668003522794	0.4622830810018609	-0.023011742144276925	-0.051989820119430985
